<?xml version="1.0" standalone="no"?>
<!DOCTYPE svg PUBLIC "-//W3C//DTD SVG 20010904//EN"
 "http://www.w3.org/TR/2001/REC-SVG-20010904/DTD/svg10.dtd">
<svg version="1.0" xmlns="http://www.w3.org/2000/svg"
 width="2550.000000pt" height="2550.000000pt" viewBox="0 0 2550.000000 2550.000000"
 preserveAspectRatio="xMidYMid meet">
<metadata>
Created by potrace 1.14, written by Peter Selinger 2001-2017
</metadata>
<g transform="translate(0.000000,2550.000000) scale(0.100000,-0.100000)"
fill="#000000" stroke="none">
<path d="M12570 19556 c-36 -7 -91 -20 -124 -30 -32 -9 -70 -19 -85 -21 -14
-2 -42 -6 -61 -9 -19 -3 -60 -8 -91 -11 -31 -3 -67 -8 -80 -10 -13 -3 -37 -7
-54 -10 -16 -3 -41 -7 -55 -9 -154 -27 -366 -107 -500 -189 l-85 -52 -145 -1
c-80 -1 -170 -6 -200 -13 -30 -6 -66 -13 -80 -16 -71 -13 -263 -74 -448 -142
-225 -82 -379 -133 -401 -133 -29 0 -99 -50 -109 -77 -12 -38 -7 -63 27 -131
60 -121 49 -174 -57 -267 -125 -111 -172 -167 -212 -250 -63 -130 -95 -328
-70 -440 15 -69 19 -85 24 -93 9 -16 -24 -73 -49 -82 -38 -14 -67 -4 -153 54
-140 93 -317 166 -477 196 -74 14 -276 18 -362 7 -124 -15 -290 -70 -407 -133
-185 -100 -355 -277 -465 -487 -79 -148 -106 -171 -276 -237 -356 -138 -612
-329 -821 -615 -97 -131 -179 -285 -258 -484 -31 -77 -56 -145 -56 -151 0 -6
-4 -18 -10 -28 -5 -9 -26 -60 -46 -112 -19 -52 -44 -117 -55 -145 -27 -70 -33
-109 -20 -133 10 -19 129 -81 452 -235 75 -36 145 -68 157 -71 18 -6 52 -36
40 -36 -2 0 -45 -8 -94 -19 -49 -10 -123 -25 -164 -32 -41 -7 -77 -13 -80 -14
-3 -1 -24 -5 -48 -9 -25 -5 -41 -13 -39 -19 4 -13 61 -44 167 -91 36 -16 106
-48 155 -71 50 -23 110 -51 135 -63 25 -11 86 -39 135 -62 50 -23 176 -82 280
-130 203 -94 291 -135 450 -209 55 -26 125 -58 155 -72 30 -13 91 -42 135 -64
68 -34 81 -45 89 -73 6 -21 5 -40 -1 -55 -17 -36 -22 -38 -478 -201 -515 -184
-500 -177 -500 -211 0 -23 7 -33 30 -45 17 -8 66 -35 110 -59 44 -24 105 -57
135 -74 30 -16 73 -40 95 -52 22 -12 69 -38 105 -58 92 -49 160 -87 195 -107
31 -18 97 -54 240 -130 44 -24 85 -46 90 -50 6 -4 37 -22 70 -40 119 -64 182
-155 192 -275 4 -55 2 -65 -17 -83 -13 -12 -48 -26 -79 -32 -74 -15 -75 -15
-371 -110 -271 -87 -282 -91 -287 -106 -2 -6 85 -75 192 -155 l196 -144 -26
-22 c-34 -29 -85 -42 -170 -42 -189 -1 -376 -39 -525 -107 -65 -30 -165 -88
-180 -104 -3 -3 -23 -18 -45 -34 -61 -45 -172 -163 -227 -241 -212 -301 -276
-688 -171 -1020 21 -66 94 -214 144 -294 55 -85 120 -217 159 -321 18 -47 48
-121 67 -165 19 -44 37 -87 39 -95 4 -13 -137 -15 -1228 -15 -678 0 -1248 -1
-1266 -3 l-32 -4 0 -2749 0 -2749 22 -5 c50 -11 152 -15 333 -14 105 0 3715 1
8023 1 7138 1 7834 3 7841 17 10 20 11 5465 0 5482 -5 9 -589 12 -2525 13
l-2519 1 -3 28 c-7 60 58 108 163 121 91 12 119 18 202 42 197 58 331 165 413
329 55 111 113 203 173 276 47 59 161 171 212 210 17 13 32 26 35 29 3 3 38
32 79 64 101 81 157 131 286 255 135 130 217 175 365 201 304 53 531 218 617
450 29 76 33 106 38 245 6 158 6 157 85 395 59 176 114 376 135 485 51 276 67
445 68 700 1 161 -7 328 -18 396 -2 13 -6 47 -9 74 -3 28 -8 61 -12 75 -3 14
-7 55 -9 92 -4 64 -3 68 26 92 17 14 38 26 47 27 169 8 204 13 292 39 186 55
341 175 428 330 32 58 72 151 78 185 17 100 22 157 19 223 -4 85 -7 105 -32
217 -22 96 -4 131 96 184 124 67 126 92 25 291 -76 149 -183 323 -268 436 -17
23 -38 52 -46 64 -8 13 -24 35 -36 49 -185 231 -422 568 -514 731 -112 197
-195 305 -346 449 -55 52 -165 158 -245 235 -80 78 -172 166 -205 196 -439
408 -934 757 -1409 992 -77 38 -147 73 -156 78 -68 36 -355 143 -454 169 -215
56 -398 45 -596 -35 -95 -38 -116 -37 -140 9 -31 58 -135 179 -200 232 -155
128 -471 240 -734 260 -112 9 -132 13 -198 42 l-62 28 -710 1 c-519 1 -727 -1
-775 -10z"/>
</g>
</svg>
