<?xml version="1.0" encoding="utf-8"?>
<!-- Generator: Adobe Illustrator 21.1.0, SVG Export Plug-In . SVG Version: 6.00 Build 0)  -->
<svg version="1.1" id="Capa_1" xmlns="http://www.w3.org/2000/svg" xmlns:xlink="http://www.w3.org/1999/xlink" x="0px" y="0px"
	 viewBox="0 0 396 612" style="enable-background:new 0 0 396 612;" xml:space="preserve">
<style type="text/css">
	.st0{fill:#3F7642;}
	.st1{fill:#F9FBFA;}
	.st2{fill:#6C966E;}
	.st3{fill:#3D7540;}
	.st4{fill:#53341B;}
	.st5{fill:#070707;}
	.st6{fill:#8B6946;}
	.st7{fill:#5A3D25;}
	.st8{fill:#59AEDE;}
	.st9{fill:#437A48;}
	.st10{fill:#447B49;}
	.st11{fill:#447A49;}
	.st12{fill:#73B062;}
	.st13{fill:#957757;}
	.st14{fill:#5FA34C;}
	.st15{fill:#624730;}
	.st16{fill:#D46B2E;}
	.st17{fill:#60A64B;}
	.st18{fill:#E77C34;}
	.st19{fill:#F8FAF9;}
	.st20{fill:#B9BBBD;}
	.st21{fill:#6F553A;}
	.st22{fill:#5E432D;}
	.st23{fill:#F7FAF8;}
	.st24{fill:#F6F9F7;}
	.st25{fill:#60A54B;}
	.st26{fill:#447B48;}
	.st27{fill:#447A48;}
	.st28{fill:#457C49;}
	.st29{fill:#467D49;}
	.st30{fill:#5A9C4C;}
	.st31{fill:#BDE1F3;}
	.st32{fill:#F8FBFA;}
	.st33{fill:#F8FAFA;}
	.st34{fill:#BEE1F3;}
	.st35{fill:#F7F9F8;}
	.st36{fill:#F8FBF9;}
	.st37{fill:#ED7E33;}
	.st38{fill:#EA7D34;}
	.st39{fill:#E47E3D;}
	.st40{fill:#F8D7AE;}
</style>
<path class="st0" d="M393.6,514.5c-1,0-5,0-6,0c-123.4,0-246.8,0-370.2,0c-4.3,0-8.6,0.3-12.8-0.4c0-44,0-88,0-132
	c0.9,0,1.7-0.1,2.6-0.1c18.5,0,37,0,55.5,0c0.8,0,1.7,0,2.8,0c-0.8-1.7-1.6-3.2-2.1-4.8c-1.3-3.8-3-7.3-5.2-10.7
	c-10.1-15.6-0.2-39,19.7-41.6c2-0.3,4-0.5,6.1-0.4c1.4,0,2.6-0.3,3.7-1.6c-3.2-2.3-6.4-4.7-9.5-7c0.3-0.6,0.8-0.7,1.2-0.8
	c5.1-1.4,10-3.6,15.2-4.6c1.6-0.3,2.1-1,1.9-2.7c-0.3-2.8-1.6-5-4.2-6.4c-8.2-4.5-16.4-9-24.6-13.5c-0.1-0.1-0.3-0.2-0.4-0.2
	c-0.7-0.3-1.4-0.6-1.3-1.4s0.9-0.8,1.4-1c6.7-2.5,13.5-4.9,20.2-7.3c1.1-0.4,2.1-0.8,2.2-2.1c0.1-1.4-1-1.9-2.1-2.4
	c-12.7-5.9-25.4-11.8-38.2-17.7c-0.3-0.2-0.7-0.3-0.9-0.8c3.5-0.7,7-1.3,10.5-2c-0.5-0.9-1.3-1-2-1.3c-4-1.9-8-3.8-12-5.8
	c-2-1-2.2-1.4-1.5-3.4c1.5-3.9,3-7.9,4.5-11.8c5-12.9,13.8-21.9,27-26.4c2.3-0.8,3.8-2.2,4.9-4.4c3.6-7.1,9-12.4,16.8-14.7
	c9.1-2.7,17.6-1,25.4,4.3c0.3,0.2,0.6,0.5,1,0.7c0.8,0.4,1.7,0.5,2.4-0.1c0.8-0.6,0.9-1.4,0.6-2.3c-0.9-2.6-0.7-5.2-0.2-7.8
	c0.7-3.9,2.5-7.2,5.7-9.6c0.5-0.4,1-0.8,1.4-1.2c2-1.9,2.2-3.2,1.1-5.6c-0.1-0.1-0.1-0.3-0.2-0.4c-1.8-2.8-0.7-4.3,2-5
	c4.7-1.2,9.1-3.2,13.7-4.7c5-1.7,10.1-3.1,15.6-2.5c0.7,0.1,1.4-0.2,2-0.6c4.8-3.4,10.4-4.9,16.1-5.8c2.5-0.4,5-0.4,7.4-1.2
	c4.4-1.5,8.9-1,13.3-1c7.8-0.1,15.6,0,23.4,0c1.1,0,2.1,0.1,3.1,0.7c1.5,0.9,3.3,0.9,5,1c4.4,0.5,8.6,1.6,12.6,3.3
	c3.9,1.7,7,4.3,9.3,7.9c1.2,1.9,1.4,2,3.3,1.1c5.1-2.4,10.4-2.4,15.7-0.8c7.6,2.3,14.6,5.8,21.4,9.8c11.1,6.5,21,14.5,30.2,23.5
	c2.6,2.6,5.3,5.1,7.9,7.6c2.7,2.6,4.9,5.6,6.7,8.9c2.9,5.3,6.5,10.1,10.2,14.9c3.5,4.6,7,9.2,9.8,14.3c0.9,1.6,1.8,3.3,2.5,5
	c0.9,2.2,0.5,3.1-1.6,4.1c-0.4,0.2-0.9,0.4-1.3,0.6c-1.1,0.6-1.5,1.5-1.5,2.7c0,1.1,0.4,2.1,0.6,3.2c2.4,11.4-5.4,21.4-17.1,21.8
	c-0.4,0-0.8,0-1.2,0c-2.4,0.2-3.1,1.1-2.7,3.6c2.7,15.8,0.9,31.2-4.8,46.2c-0.6,1.7-1,3.4-0.9,5.2c0.4,7.6-3.1,13.2-10.2,16.2
	c-1.9,0.8-3.8,1.4-5.8,1.7c-3.2,0.5-5.9,2-8.1,4.3c-2.8,2.9-5.8,5.5-8.9,7.9c-4.3,3.3-7.9,7.2-10.2,12.3c-2.3,5-6.6,7.5-11.8,8.7
	c-1.1,0.2-2.2,0.4-3.2,0.5c-0.9,0.1-1.7,0.3-2.5,0.7c-1,0.5-1.7,1.5-1.4,2.5c0.2,0.9,1.4,0.5,2.1,0.5c35,0,69.9,0,104.9,0
	c3.7,0,10.5-0.2,14.2,0.1c0.4,0.8,0.2,1.7,0.2,2.5c0,42.5,0,84.9,0,127.4C393.9,512.8,394.2,513.7,393.6,514.5z"/>
<path class="st1" d="M77,254.4c-7.5-3.4-15-6.8-22.7-9.9c-4.4-1.8-5-3-3.5-7.5c1.2-3.5,2.7-6.8,4.5-10c5.5-9.6,13.5-16,24.2-18.9
	c1.9-0.5,3.1-1.5,3.8-3.4c0.9-2.4,2.2-4.6,3.8-6.7c6.8-9,17.6-11.6,27.7-6.7c1.5,0.8,3,1.7,4.4,2.6c5,3.1,9.2,1.1,12.8-1.4
	c0.9-0.6,0.7-1.4,0.3-2.3c-0.6-1.3-1.2-2.7-1.5-4.2c-1.2-5.5,0.7-10.3,5.6-13.2c1.1-0.6,2.2-1.1,3.3-1.7c1.6-0.9,1.9-1.7,1.2-3.4
	c-0.3-0.6-0.7-1.2-0.9-1.9c-0.9-2.3-0.4-3.9,2-4.6c4.6-1.3,8.9-3.3,13.5-4.7c2.2-0.7,4.5-0.9,6.9-0.7c3.3,0.2,6.4-0.5,9.1-2.3
	c4.2-2.7,8.8-3.9,13.6-4.5c8.8-1,17.5-1.7,26.4-1.7c10.1-0.1,20.2,0.8,30.2,3c7.5,1.6,11.2,6.2,12.2,13.4c0.1,0.8,0.3,1.5,0.4,2.3
	c0.1,0.7,0.5,1.1,1.2,1.3c0.7,0.1,1.2-0.2,1.6-0.7s0.6-1.1,1-1.6c2.4-2.9,5.2-5.4,9.2-5.9c1.6-0.2,3.1,0.1,4.6,0.5
	c10.6,3,20.3,7.9,29.4,14c7.2,4.9,13.9,10.4,20.2,16.2c3.4,3.2,6.9,6.4,10.2,9.6c3.1,3,5.6,6.4,7.6,10.3c3,5.9,6.5,11.4,11.3,15.9
	c1.4,1.3,2.4,3.1,3.3,4.8c1.3,2.4,2.5,4.8,3.9,7.2c1.1,1.7,0.8,2.4-1,3.4c-0.7,0.4-1.6,0.7-2.3,1.2c-1.4,0.9-1.7,1.9-1,3.4
	c0.2,0.5,0.5,1,0.8,1.4c3.4,5.1,2.4,11.5-2,15.8c-5.6,5.5-14.1,5.1-19.2-0.9c-0.5-0.6-1-1.4-2-1.6c-0.4,0.7,0.1,1.3,0.3,1.9
	c3.3,9.6,4.9,19.5,4.6,29.6c-0.3,9.1-2.1,17.9-5.2,26.5c-1.1,3-1.8,6.1-1.8,9.3c-0.1,5.7-4.4,10.4-10.4,11.2
	c-4.8,0.6-8.7,2.6-12,6.2c-3.6,3.9-7.9,7-12,10.4c-2.2,1.8-4.3,3.7-5.8,6.1c-0.7,1.1-1.2,2.2-1.6,3.4c-1.8,5.3-5.8,7.7-11.1,8.2
	c-1.1,0.1-2.2,0.1-3.3,0c-2-0.1-3.3,0.8-4.1,2.5c-1.7,3.6-3.9,6.8-6.5,9.7c-0.3,0.4-1,0.7-0.7,1.4c0.3,0.7,1,0.5,1.7,0.5
	c24.5-0.1,49-0.1,73.5-0.2c7.8,0,15.6,0.1,23.4-0.1c7.5-0.2,15-0.1,22.5-0.2c5,0,6.1,0.9,6,6c-0.3,15.8-0.2,31.7-0.2,47.5
	c0,21.1,0,42.1,0.1,63.2c0,0.9,0,1.9-0.1,2.8c-0.2,2-0.9,2.8-2.8,3.1c-0.9,0.2-1.9,0.2-2.8,0.2c-18.1,0-36.2,0.1-54.3,0
	c-89.3-0.4-178.6-0.1-268-0.1c-15.2,0-30.4,0-45.6,0.1c-1.1,0-2.2,0-3.3-0.2c-1.8-0.4-2.5-1.1-2.8-2.9c-0.1-0.7-0.1-1.4-0.1-2.1
	c0-15.8,0.1-31.5,0.1-47.3c0-21.1-0.1-42.1-0.1-63.2c0-1.1,0-2.2,0.1-3.3c0.2-2.3,1.2-3.3,3.6-3.5c1.4-0.1,2.8,0,4.2,0
	c19.8,0,39.6,0.1,59.4,0.1c0.5,0,0.9,0.1,1.4-0.2c0.3-0.8-0.4-0.9-0.8-1.2c-5.5-3.7-9-8.7-10.3-15.3c-0.3-1.4-1.1-2.4-1.9-3.4
	c-3.6-4.5-5.7-9.6-5.6-15.5c0.3-11.9,10.1-21.7,21.9-21.7c3.3,0,6.5-0.6,9.4-2.2c2.5-1.4,5.3-1.8,8-2.3c0.4-0.1,0.8,0,1.3-0.5
	c-3.4-2.4-6.8-4.8-10.2-7.2c0.1-0.9,0.8-0.8,1.2-1c3.3-1.1,6.7-2.1,10-3.2c2.4-0.8,2.7-1.3,2.1-3.7c-2.1-7.9-6.8-13.6-14.5-16.6
	c-3.9-1.5-7.4-3.9-11.3-6.2c1.9-0.7,3.5-1.4,5.1-2c3.4-1.2,6.7-2.5,10.1-3.7c2.3-0.9,2.5-1.2,2.4-3.6c-0.1-1.1,0-2.2,0-3.3
	c0.1-2.9-0.5-3.8-3.1-5.1c-7.6-3.5-15.3-7.1-22.9-10.6c-0.9-0.4-1.8-0.9-3.2-1.5c4.1-1.1,7.8-1.4,11.4-2.3
	C77.4,254.9,77.4,254.7,77,254.4z"/>
<path class="st2" d="M77,254.4c0.4,0,0.8,0.2,0.8,0.6c0,0.3-0.5,0.2-0.7,0.2C77,254.9,77,254.7,77,254.4z"/>
<path class="st0" d="M280.7,354.6c0.1,1.6,0.3,3.3,0,4.9c-0.5,2.6-2.1,4.3-5,4.9c-2.7,0.6-4.9-0.1-6.6-2.3c-0.8-1-1.1-2.2-1.5-3.4
	c-1.8-4.9-4.1-9.4-7.4-13.5c-3.4-4.1-7.5-7.2-12.8-8.5c-13.8-3.3-27.2,5-30.8,19c-0.9,3.6-1.3,7.2-1.1,10.9c0.1,1.5,0.1,3-0.3,4.4
	c-0.8,2.8-3,4.4-6.4,4.5c-2.8,0.1-4.9-1.3-5.9-4c0-0.1-0.1-0.1-0.1-0.2c-0.2-3.2-2.5-3.9-5.2-4.1c-1.7-0.1-3.4-0.5-5.1-0.9
	c-2.5-0.6-2.8-0.5-4.3,1.6c-1.9,2.7-4.5,3.4-7.6,2.3c-1.7-0.6-2.7-1.7-3.1-3.5c-0.3-1.4-0.3-2.8-0.4-4.2c-0.1-5.3-0.9-10.5-2.7-15.6
	c-3.6-10.6-11.2-15.9-22.2-16.6c-3-0.2-6.1,0-9.1,0.6c-6.8,1.5-11.8,5.4-15,11.6c-0.6,1.2-1.2,2.5-2.2,3.5c-2,2-4.3,2.5-6.8,1.4
	s-3.9-3.2-3.8-5.9c0-1.6,0.6-3,1.3-4.4c0.9-1.7,2.1-3.3,3.4-4.8c1.3-1.6,2.8-3,3.7-4.8c0.9-0.9,2-1.5,2.9-2.4
	c6.8-4.7,14.4-6.7,22.5-7.1c6-0.3,11.9,0.2,17.5,2.3c10.1,3.7,16.3,11.2,20.1,20.9c2.3,5.8,3.3,12,3.1,18.3c0,1,0.2,1.9,1.2,2.3
	c2.7,1,5.4,2.1,8.4,2c1.5,0,2.3-0.7,2.6-2.1c0.2-0.8,0.3-1.7,0.4-2.5c0.7-17.4,14.6-34.2,33.5-36.3c17.1-1.9,30.1,4.5,39.2,19.5
	c1.7,2.8,3.1,5.8,4.6,8.7C279.9,352.1,281.1,353.1,280.7,354.6z"/>
<path class="st3" d="M37.3,415.1c1.4-4.5,2.8-9.1,4.2-13.6c0.2-0.6,0.3-1.2,0.5-1.8c0.8-2.6,2-3.6,4.7-3.6c1.7,0,3.4,0,5.1,0.1
	c2.9,0.2,3.8,1.1,4.1,4c0.1,0.9,0.1,1.9,0.1,2.8c0,12.9,0,25.9,0.1,38.8c0,3.4,0,5.4-5.4,5.1c-1.2-0.1-2.3-0.1-3.5-0.2
	c-2.4-0.2-3.2-1-3.3-3.3c-0.2-3.3-0.2-6.5-0.4-9.8c0-0.8,0.1-1.7-0.7-2.8c-2.1,5.1-3.6,10.1-5.7,15.3c-2.3-5.5-3.8-10.9-6.1-16.3
	c-0.9,0.8-0.6,1.5-0.6,2.2c0,3.8,0,7.6,0,11.5c0,2.7-0.6,3.4-3.2,3.6c-1.9,0.1-3.9,0.2-5.8,0c-2.2-0.2-3-1-3.3-3.2
	c-0.2-1.3-0.3-2.6-0.3-4c0-13.1-0.1-26.2-0.1-39.3c0-0.7,0-1.4,0.2-2.1c0.3-1.6,1-2.3,2.7-2.4c2.4-0.2,4.8-0.1,7.2,0.1
	c1.9,0.2,3.2,1.3,3.8,3c0.7,1.9,1.3,3.8,2,5.7c1.1,3.4,2.2,6.8,3.3,10.2C36.9,415.1,37.1,415.1,37.3,415.1z"/>
<path class="st3" d="M297.9,414c0-4.5,0-8.8,0-13.1c0-0.7-0.1-1.4,0-2.1c0.2-2,1-2.8,3-2.9c2.1,0,4.2,0,6.3,0.2
	c1.9,0.1,2.5,0.7,2.7,2.6c0.2,1.1,0.2,2.2,0.2,3.3c0,13.1,0,26.2,0,39.3c0,1.2,0.1,2.3,0.2,3.5c0,1.1-0.4,1.9-1.6,1.9
	c-1.7,0-3.2,0.5-4.9,0.6c-2.8,0.1-4-0.5-5.1-3.1c-2-4.5-4-9-6-13.4c-0.3-0.6-0.5-1.1-0.8-1.7c-0.1-0.3-0.3-0.5-0.7-0.5
	c-0.4,0.1-0.4,0.4-0.5,0.7c-0.1,1.9-0.2,3.9-0.1,5.8c0,2.4,0.1,4.8,0.2,7.2c0,0.8,0,1.6-0.1,2.3c-0.2,1.2-0.8,2-2.1,2.2
	c-2.6,0.4-5.3,0.4-7.9-0.2c-1.2-0.3-1.8-1.2-2-2.4c-0.2-1.7-0.3-3.4-0.3-5.1c0-11.7,0.1-23.4,0.1-35.1c0-1.9-0.1-3.7-0.2-5.6
	c0-1.7,0.4-2.3,2.2-2.3c1.3,0,2.6-0.2,3.9-0.4c3.2-0.4,4.6,0.3,5.9,3.3c2,4.3,3.8,8.7,6,12.9C296.8,412.6,297,413.4,297.9,414z"/>
<path class="st3" d="M115.3,429.1c0,2.9-0.1,5.8-0.1,8.8c0,1.8,0.2,3.6,0.2,5.4c0,2.6-0.8,3.5-3.4,3.7c-1.9,0.1-3.9,0.1-5.8-0.2
	c-2-0.3-2.7-0.9-2.9-3c-0.4-3.6-0.2-7.2-0.2-10.8c-0.1-10.4-0.1-20.9,0.1-31.3c0-1-0.2-2-0.3-3c-0.1-1.9,0.4-2.5,2.2-2.5
	c1.4,0,2.8-0.2,4.2-0.4c3.1-0.4,4.6,0.5,5.8,3.4c2,4.6,3.9,9.2,5.9,13.7c0.2,0.5,0.3,1.2,1.1,1.4c0.7-0.5,0.4-1.3,0.4-1.9
	c0-4.2,0-8.4,0-12.6c0-3,0.6-3.7,3.7-3.8c1.8,0,3.6,0,5.4,0.1c2,0.1,2.8,0.9,3.1,2.9c0.1,0.7,0.1,1.4,0.1,2.1c0,13,0,26,0,39.1
	c0,1.3,0,2.6,0.2,4c0.3,1.9-0.2,2.4-2,2.6c-1.3,0.1-2.6,0.4-3.9,0.5c-3.3,0.3-4.5-0.4-5.8-3.4c-1.8-4.2-3.7-8.3-5.8-12.2
	c-0.4-0.8-0.9-1.6-1.4-2.4C115.6,429.1,115.4,429.1,115.3,429.1z"/>
<path class="st4" d="M280.7,354.6c-0.5-1.1-1.3-2.1-1.5-3.4c0.2-0.8,0.9-1.1,1.5-1.4c6.1-3.1,11.1-7.7,16.2-12.2
	c1.4-1.2,2.8-2.5,4.2-3.7c0.6-0.5,1.3-1.1,1-1.9c-0.3-1-1.2-0.8-2-0.8c-16.2-1.2-31.9-4.6-47.1-10.6c-12.7-5.1-23.9-12.4-32.5-23.3
	c-0.2-0.2-0.3-0.5-0.9-0.5c-0.9,1.9-0.6,3.9-0.7,5.9c0,1.2,0.1,2.5-0.1,3.7c-0.1,0.5-0.3,0.9-0.8,1s-0.9-0.3-1.1-0.6
	c-2.8-3.5-1.7-13.9,1.7-16.6c1.9-1.6,4.2-1.9,6.1-0.9c1.5,0.8,1.6,1.6,0.1,2.5c-1.8,1-1.6,2-0.6,3.3c5,6.4,11.1,11.6,18.1,15.6
	c11.8,6.7,24.6,10.5,37.8,13.3c7.4,1.6,14.8,3.1,22.4,3.6c3.8,0.3,7.6,0.1,11.5,0.1c1.7,0,2.7-0.8,2.3-2.7c-0.3-1.7,0.2-3.2,0.9-4.8
	c4.5-10.6,7.1-21.6,6.8-33.2c-0.3-8.3-2.1-16.2-5.1-23.9c-7.9-20.6-21.8-36.3-39.7-48.7c-16.3-11.2-34.3-17.7-53.8-20.2
	c-4.2-0.5-8.4-0.4-12.6-1c-3.7-0.7-7.3-0.5-11,0c-10.6,0.4-21,1.6-31.2,4.9c-13.1,4.2-25.1,10.5-36,18.9c-1.8-0.3-1.8-1.6-1.5-2.9
	c2.6-2.9,6-4.8,9.2-7c0.7-0.4,1.7-0.6,1.6-1.8c-0.2-0.4-0.7-0.6-0.6-1.1c-0.1-0.1-0.1-0.2-0.1-0.4l-0.2,0.1c0.3,0.2,0.1,0.4,0,0.7
	c-0.8,0.4-1.6,0.4-2.4,0.1l0,0c-0.1-0.2-0.3-0.4-0.5-0.4l0,0c0-0.2-0.3-0.4-0.4-0.6c-0.5-0.5-0.9-0.9-1.4-1.4c-0.4-0.5-0.4-1,0-1.4
	c2.6-0.1,5.3,0.3,7.9,0.2c5.4-0.2,10.7-1.4,15.6-3.6c11.8-5.2,24.1-7.6,37-7.8c5-0.1,10-0.6,14.9-0.4c12.2,0.4,23.9,2.9,35.5,6.6
	c15,4.9,29,11.9,41.2,22c15.1,12.5,25.9,28,32.6,46.3c6.8,18.3,5.7,36.5-1.4,54.5c-1.1,2.7-2,5.2-1.1,8.1c0.4,1.5-0.4,2.7-1.8,3.5
	c-1.1,0.6-2.3,0.9-3.6,0.7c-3.6-0.4-6.8,0.8-9.4,3.2c-1.9,1.7-3.6,3.5-5.4,5.2C294.5,345.2,288,350.4,280.7,354.6z"/>
<path class="st3" d="M141.5,421.6c0-7.2,0-14.3,0-21.5c0-0.5,0-1.1,0.1-1.6c0.2-1.5,0.8-2.5,2.2-2.6c5.2-0.3,10.4-1.6,15.6-0.9
	c9.2,1.3,13.8,5.8,15.4,14.9c1.3,7.8,1.3,15.5-0.3,23.2c-0.2,0.8-0.3,1.5-0.5,2.3c-2.2,7.7-7.2,11.5-15.2,11.8
	c-4.9,0.1-9.8-0.5-14.7-0.5c-1.8,0-2.3-0.6-2.5-2.4c-0.1-1.1,0-2.2,0-3.3c0-3.3,0-6.5,0-9.8C141.6,428,141.6,424.8,141.5,421.6
	L141.5,421.6z"/>
<path class="st3" d="M233.1,434.7c-0.8,1.5-1,3.1-1.1,4.8c-0.1,1.6,0.1,3.3,0.2,4.9c0.2,2-0.3,2.5-2.3,2.5c-2.2,0-4.4,0.4-6.5,0
	c-1.9-0.4-2.5-0.9-2.9-2.8c-0.2-0.9-0.2-1.9-0.2-2.8c0-13.7,0-27.5,0-41.2c0-0.5,0-0.9,0-1.4c0.2-1.7,0.9-2.8,2.5-2.8
	c5.2-0.2,10.4-1.4,15.6-0.7c6.2,0.9,10.7,4,12.8,10.1c2.9,8.6,1.7,16.6-4.3,23.6c-1.9,2.2-1.9,2.2-0.6,4.9c2,4,4.1,8,6.1,12.1
	c-5.4,3-11.7,1.7-15.3-3.1c-1.4-1.8-2.3-3.9-3.1-6C233.8,436.1,233.8,435.2,233.1,434.7z"/>
<path class="st5" d="M129.1,378.3c1.4-0.1,2.7-0.3,4.1-0.4c-0.1-1-0.8-1.5-1.2-2.1c-2.9-4.2-5-8.8-5.5-13.9c-0.4-3.6,0-7,1.1-10.4
	c1.5-4.8,3.8-9.2,7.5-12.7c10.7-10.2,28.5-9.1,36.6,6.8c7.1,13.9-0.8,35.9-19.7,38.7c-4.7,0.7-9.3,0.2-13.8-1.3
	C135,381.8,132.1,380.2,129.1,378.3z"/>
<path class="st0" d="M209.4,447c-1.4-0.2-2.6-0.1-3.8,0c-2.5,0.2-3.8-1-4-3.5c-0.1-0.9,0-1.9-0.1-2.8c-0.2-1.7-1-2.7-2.7-3.1
	c-1.1-0.3-2.2-0.3-3.2-0.1c-2.1,0.3-3.1,1.4-3.3,3.6c-0.1,1,0,2-0.1,3c-0.1,1.7-0.7,2.4-2.4,2.7c-2.9,0.5-5.8,0.3-8.6-0.1
	c-1.5-0.2-2.2-1.1-2.1-2.9c0.1-1.9,0.5-3.9,0.8-5.8c2.3-12.3,4.5-24.7,6.5-37c0.1-0.8,0.3-1.5,0.6-2.3c0.8-2.1,2.3-3.2,4.5-2.9
	c3.1,0.4,6.2,0.2,9.3,0.3c4.2,0.1,5.4,1.1,6.2,5.2c1,5.3,1.9,10.6,2.9,15.9c1.5,8.2,3,16.4,4.5,24.6c0.2,1,0.3,2,0.3,3
	c0,1.5-0.4,1.9-1.9,2.1C211.6,446.9,210.5,446.9,209.4,447z"/>
<path class="st0" d="M93.8,447.1c-1.4-0.4-3.1-0.1-4.8,0c-3,0.2-4.7-1.4-4.9-4.4c0-0.8,0-1.6,0-2.3c-0.1-1.2-0.6-2.1-1.8-2.5
	c-1.4-0.4-2.9-0.6-4.4-0.4c-1.8,0.2-2.6,1.1-2.7,2.9c-0.1,0.9,0,1.7,0,2.6c-0.1,2.5-1.1,3.6-3.4,4c-2.6,0.4-5.3,0-7.9-0.4
	c-1.4-0.2-1.9-1-1.9-2.5c-0.1-2,0.4-4,0.8-6c2-10.7,4.1-21.4,5.8-32.2c0.3-2,0.5-4,1-6c0.8-3.4,2.6-4.5,6-4c2.3,0.4,4.7,0.1,7,0.2
	c5.7,0.1,6.7,0.9,7.7,6.5c1.7,10,3.5,19.9,5.2,29.9c0.6,3.5,1.3,6.9,2,10.3c0.1,0.6,0.2,1.2,0.1,1.9
	C97.1,446.5,96.2,447.1,93.8,447.1z"/>
<path class="st0" d="M332.5,396.1c1.7,0,3.4,0,5.1,0c4,0.1,5.1,0.9,5.9,4.9c1,4.6,1.8,9.3,2.6,14c1.6,9.1,3.1,18.3,4.9,27.3
	c0.2,0.8,0.3,1.7,0.3,2.5c0,1.5-0.5,2.2-1.9,2.1c-2.4-0.3-4.8,0.4-7.2,0.2c-2.5-0.2-4-1.6-4.2-4.1c-0.1-0.8,0-1.7,0-2.6
	c0-1.9-0.6-2.5-2.4-2.8c-1.5-0.2-3-0.1-4.4,0.1c-1.3,0.1-1.9,0.9-2,2.2c-0.1,1,0,2,0,3c0,2.9-0.6,3.5-3.4,3.9
	c-3.1,0.5-6.1,0-9.1-0.2c-1.3-0.1-1.5-0.4-1.3-1.6c2.1-11.5,4.1-23,6.2-34.5c0.7-3.9,1.3-7.8,2.1-11.7c0.4-2.3,0.9-2.7,3.3-2.8
	C328.8,396,330.7,396,332.5,396.1L332.5,396.1z"/>
<path class="st5" d="M237,387.8c-4.9,0.1-9.5-1.5-14-3.9c-0.8-0.4-0.9-0.9-0.3-1.6c1.4-1.6,1.4-1.6-0.1-3.3
	c-2.3-2.8-3.6-6.1-4.1-9.5c-1.5-9.6,1.1-18,8.1-24.7c7.7-7.3,19.1-8.2,27.3-2.4c4.6,3.3,7.4,7.9,8.6,13.4
	c2.4,10.7-1.9,22.9-12.8,28.9C245.9,386.8,241.7,387.9,237,387.8z"/>
<path class="st3" d="M147.9,475.9c0.4,0.7,1,0.9,1.4,1.2c1,0.7,2.1,1.4,3.1,2.1c6.2,5,6.2,12.5,0.1,17.6c-2.7,2.3-5.9,3.4-9.3,4.1
	c-6.2,1.2-12.3,0.5-18.1-1.8c-5.1-2-8-5.8-8.2-11.4c-0.1-3.3,1.2-6,3.8-8.2c1.5-1.3,3.3-2.2,5.4-3.3c-1.1-0.7-2-1.2-2.9-1.8
	c-6.5-4.1-6.4-12.1,0.1-16.2c2.8-1.8,6-2.6,9.3-2.9c4.8-0.6,9.7-0.2,14.3,1.4c4.3,1.5,7.4,4.2,8.1,9.1c0.4,2.9-0.5,5.2-2.5,7.2
	C151,474.1,149.4,474.9,147.9,475.9z"/>
<path class="st0" d="M357.9,431.2c1,0.7,1.3,1.5,1.8,2.2c1.8,2.2,4,3.7,6.8,4.3c1.6,0.3,3,0.1,4-1.2c1-1.4,1.3-2.8,0.5-4.4
	c-0.8-1.8-2.1-3.1-3.9-3.9c-1.5-0.7-3-1.3-4.5-1.9c-5.4-1.9-8-5.9-8.5-11.5c-0.2-2.7-0.1-5.5,0.6-8.1c1.7-6.4,7.4-11.2,14.1-11.9
	c3.7-0.4,7.1,0.1,10.4,1.9c1.2,0.6,2.1,1.4,1.9,2.9c-0.5,4.5-1.1,8.9-1.7,13.9c-1.2-1.6-2-2.8-2.9-3.9c-1.5-1.9-3.4-2.6-5.8-2.1
	s-3.5,2.2-4,4.4c-0.5,2.2,0.2,4,2,5.3c0.8,0.5,1.6,0.9,2.5,1.3c1.3,0.6,2.6,1.1,3.8,1.7c7.5,3.7,10.5,10.2,8.2,18.2
	c-1.9,6.8-6.9,9.8-13.4,9.6c-3-0.1-6-0.6-9-1.3c-3.3-0.7-4.2-2-4.2-5.4C356.9,437.9,357.5,434.7,357.9,431.2z"/>
<path class="st6" d="M133.2,214c0.7,0.8,0.1,2.3,1.4,2.8c2.5,0.7,6.6,5.4,7,7.7c0.5,2.9-3.6,8-7.9,6.7c-1.9-0.6-3.5-1.6-5.1-2.7
	c-1.4-1.1-2.9-1.8-4.6-2.1c-0.8-0.5-1.6-0.9-2.5-1.2c-0.1-1.8-1.6-1.8-2.8-2c-0.5-3.4-3-4.5-5.9-5.3c-6.1-1.5-12.4-2.1-18.6-2.4
	c-1.2-0.1-2.5,0.3-3.5-0.7c0-1.9,0-3.7,0.4-5.6c1.7-8.6,9.4-13.4,17.9-11c1.8,0.5,3.5,1.3,5.1,2.2c5.8,3.6,11.3,7.7,16.5,12.1
	C131.3,213.4,132.1,213.9,133.2,214z"/>
<path class="st3" d="M48.3,464c-7.4,0-14.3-0.1-21.2,0c-4.6,0.1-5-1.3-4.9-5c0.1-2.2,0.7-2.8,2.9-3.1c1.6-0.2,3.3,0.1,4.9,0.1
	c8.2,0,16.4,0,24.6,0.1c1.6,0,3.1-0.1,4.7-0.3c1.9-0.3,2.6,0.3,3,2.1c0.6,2.6-0.3,4.6-2.2,6.3c-2.2,1.9-4.2,3.9-6.1,6.2
	c-5.9,7-9.7,15-11.6,23.9c-0.3,1.4-0.6,2.7-1,4.1c-0.4,1.5-1.4,2.4-3,2.5c-2,0.2-3.9,0.2-5.8-0.1c-1.8-0.3-2.3-0.9-2.1-2.7
	c0.2-2.4,0.8-4.8,1.4-7.1c2.4-8.7,6.9-16.1,12.8-22.9C45.7,466.8,46.8,465.6,48.3,464z"/>
<path class="st3" d="M90.6,215c3.9-0.1,7.8,0.1,11.6,0.5c4.6,0.5,9.2,1.2,13.6,2.8c2.6,0.9,3.4,2.4,2.9,5c-1.7,3.5-3.6,6.7-6,9.7
	c-6.4,8.1-15,12.2-25.2,12.8c-4.1,0.3-8.3,0.2-12.4-0.5c-0.3-0.2-1.1-0.1-0.9-0.8s0.8-0.9,1.5-0.6c0.5,0,0.9,0.1,1.4,0.1
	c1.1,0.5,2-0.2,3-0.4c-0.3-0.7-0.9-0.7-1.3-1c-5.8-0.2-11-2.4-16.3-4.4c-1.9-0.7-2.1-1.7-1.2-3.8c4.6-10.1,12.1-16.5,23.2-18.6
	C86.4,215.5,88.5,215.3,90.6,215z"/>
<path class="st3" d="M362.4,468.9c-0.9-0.1-1.6,0.5-2.4,0.8c-3.3,1.4-6.6,2.8-9.9,4.1c-1.8,0.7-2.2,0.5-2.6-1.3
	c-0.1-0.3-0.2-0.6-0.2-0.9c-0.8-3.7-0.3-4.6,3.2-6c5.3-2.1,10.1-4.8,13.8-9.3c1-1.2,2.2-1.6,3.7-1.7c1.7,0,3.3,0.4,4.8,0.7
	c1.5,0.3,1.9,0.9,1.8,2.5c-0.7,12.6-0.2,25.2-0.3,37.8c0,0.9,0,1.7-0.1,2.6c-0.2,1.8-1.1,2.7-2.9,2.6c-2-0.1-4-0.2-6,0
	c-1.6,0.2-2.5-0.7-2.7-2.3c-0.1-0.8-0.1-1.6-0.1-2.3c0-8.3,0-16.7,0-25C362.6,470.4,362.8,469.6,362.4,468.9z"/>
<path class="st3" d="M87.8,468.9c-1.2,0-2,0.6-2.8,0.9c-3.1,1.3-6.2,2.6-9.3,3.9c-1.9,0.8-2.5,0.5-2.9-1.6c-0.1-0.3-0.1-0.6-0.2-0.9
	c-0.7-3.4-0.3-4.3,2.8-5.6c5.4-2.2,10.4-5,14.2-9.5c0.9-1.1,2.1-1.5,3.5-1.5c1.7,0,3.3,0.3,4.8,0.7c1.3,0.3,1.8,1,1.8,2.3
	c-0.6,12.8-0.2,25.7-0.2,38.5c0,0.2,0,0.5,0,0.7c-0.1,3.4-1.1,4.3-4.5,3.8c-1-0.1-2-0.1-3,0.1c-3,0.4-4.3-0.6-4.3-3.6
	c0-5.4,0-10.8,0-16.1C87.8,477,87.8,473,87.8,468.9z"/>
<path class="st3" d="M319.9,468.8c-1.7,0.4-2.9,1.1-4.2,1.6c-2.7,1.1-5.4,2.3-8.2,3.4c-1.7,0.7-2.2,0.4-2.6-1.5c-0.2-1-0.4-2-0.5-3
	c-0.2-1.6,0.6-2.6,2-3.3c1.9-0.8,3.7-1.6,5.5-2.5c3.5-1.8,6.7-4,9.3-7c1.3-1.5,2.8-2.1,4.7-2c1.3,0.1,2.6,0.4,3.9,0.6
	c1.6,0.4,1.9,0.8,1.8,2.5c-0.4,7.9-0.1,15.9-0.1,23.8c0,4.8,0,9.7,0,14.5c0,0.6,0,1.3,0,1.9c-0.2,2.1-1.3,3.1-3.4,2.9
	c-1.7-0.2-3.4-0.2-5.1,0c-2.1,0.2-3.1-0.7-3.2-2.8c-0.1-2.7,0-5.4,0-8.2C319.9,482.9,319.9,476,319.9,468.8z"/>
<path class="st0" d="M248.9,468.7c-4,1.7-7.7,3.2-11.4,4.7c-0.4,0.2-0.9,0.4-1.3,0.5c-1.3,0.4-1.7,0.2-2.1-1c0-0.1-0.1-0.3-0.1-0.5
	c-0.6-3.9-1.7-5.2,3.6-7.3c5.1-1.9,9.6-4.8,13.2-9c0.9-1.1,2.1-1.5,3.5-1.6c1.7,0,3.3,0.3,4.8,0.7c1.4,0.3,1.9,1.1,1.8,2.6
	c-0.7,12-0.2,24-0.3,36c0,1.3,0.1,2.7,0,4c-0.2,2.2-1.2,3.2-3.3,3c-1.6-0.1-3.2-0.1-4.9,0c-2.3,0.2-3.5-0.9-3.6-3.3
	c-0.1-2.6,0-5.3,0-8C248.9,482.8,248.9,475.9,248.9,468.7z"/>
<path class="st0" d="M206.3,468.7c-2.7,0.9-4.8,2.1-7,3.1c-2,0.9-4,1.8-6.2,2.1c-1.6,0.2-1.6,0.1-1.9-1.5c-0.7-4.1,0.5-6.4,4.6-7.6
	c4.7-1.3,8.5-3.9,11.4-7.7c1.6-2.1,3.7-2.7,6.2-2.3c1.1,0.2,2.2,0.3,3.2,0.6c1.5,0.3,1.9,0.7,1.7,2.3c-0.6,5.8-0.2,11.7-0.3,17.5
	c-0.1,6.2-0.1,12.5,0.2,18.7c0.1,1.3,0.2,2.6-0.1,4c-0.5,2.3-1.5,3.2-3.9,3.1c-1.6-0.1-3.2-0.2-4.9-0.1c-2.1,0.2-3.1-0.8-3.1-3.1
	c-0.1-3.6,0-7.2,0-10.7C206.3,481,206.3,475,206.3,468.7z"/>
<path class="st3" d="M258.3,421.1c0-6.2,0-12.3,0-18.5c0-0.9,0-1.9,0-2.8c0.1-2.9,0.9-3.8,3.8-3.8c1.9,0,3.7,0,5.6,0.1
	c2.2,0.2,2.8,0.9,3.3,3c0.2,1,0.2,2,0.2,3c0,13.6,0,27.3,0,40.9c0,3-0.6,3.8-3.6,3.9c-2.1,0.1-4.2,0.2-6.3-0.2
	c-1.7-0.4-2.5-1-2.7-2.8c-0.2-1.6-0.3-3.3-0.3-4.9C258.4,433.1,258.4,427.1,258.3,421.1C258.4,421.1,258.4,421.1,258.3,421.1z"/>
<path class="st7" d="M121.6,225.3c1.4-0.5,1.6-0.4,2.3,0.9c0.2,1.4-0.8,2.3-1.5,3.3c-4.9,7-8.8,14.5-11.8,22.5
	c-3,8.1-3.8,16.4-3.2,25c0.8,11.6,4.4,22.1,9.5,32.3c2.4,4.7,5.2,9,8.4,13.2c0.6,0.8,1.5,1.6,1.3,2.9c-0.6,1.2-1.5,2-2.9,2
	c-2.8-1.8-6-2.6-9.2-3.4c-2.2-0.6-4.4-0.9-6.6-2.1c3.4-1.3,6.6-2.1,10.4-1.2c-0.8-1.4-1.4-2.6-2-3.7c-3.3-5.7-6-11.6-8.3-17.7
	c-0.3-0.8-0.7-1.6-0.9-2.4c-1-2.7-2.7-4.7-5.3-5.9c-0.7-0.3-1.4-0.6-1.9-1.3c0.7-1,1.7-1.1,2.7-1.2c2.5-0.3,2.5-0.3,2.1-2.9
	c-0.9-4.5-1.4-9.1-1.2-13.7c0.1-1.8,0.3-3.6,0.4-5.4s-0.3-2.4-2-2.9c-1.1-0.3-2.3-0.5-3.4-0.7c-1.8-0.3-3.6-0.5-5.1-1.5
	c-0.7-0.5-1.5-0.2-2.3-0.1c-2.5,0.2-4.9-0.4-7.5-2.1c2.7-0.3,4.9-0.5,7.1-0.7c2.9-0.2,5.7-0.5,8.6,0.3c0.6,0.2,1.2,0.1,1.9,0.2
	c2.1,0.2,3.4-0.7,4.2-2.6c0.5-1.4,1-2.8,1.5-4.2C109.8,242.2,114.4,233.1,121.6,225.3z"/>
<path class="st8" d="M110.2,370.3c-0.9,0-2.4,0-3.8,0.2c-3,0.4-5.3,2.1-6.9,4.7c-1.6,2.7-3.8,4.6-6.8,5.2c-7,1.4-16.4-2.5-17.4-12.1
	c-0.3-2.4-1.2-4.3-2.9-5.9c-3-3-4.5-6.6-4.4-10.9c0.3-7.9,7.9-14.3,15.7-12.9c3.1,0.6,5.6,0.1,8.1-1.6c9.7-6.6,20.5,0.7,21.6,10.1
	c0.3,2.6-0.2,5.2-1.6,7.4c-2,3.1-1.7,5.7,0.4,8.6c1.3,1.8,2.3,3.7,3.3,5.6c0.6,1.1,0.5,1.4-0.8,1.5
	C113.5,370.4,112.1,370.3,110.2,370.3z"/>
<path class="st0" d="M290.5,177.9c4.1,0,9.6,3.6,11.1,7.2c1,2.3,0.6,4.4-0.8,6.4c-1.6,2.4-3.3,4.7-4.9,7.1c-1.5,2.1-2.9,4.2-4.4,6.3
	c-0.6,0.9-1.3,1.9-2.6,1.5c-1.4-0.4-2.6-1.2-3.1-2.6c-0.3-0.8,0.1-1.5,0.5-2.2c0.9-1.2,1.8-2.5,2.8-3.8c1-1.5,1-2.3-0.5-3.4
	c-3.2-2.3-3.8-2.9-5.9,0.8c-0.6,1-1.3,1.9-2,2.9c-0.9,1.2-1.7,1.4-3,0.6c-0.4-0.2-0.8-0.5-1.1-0.8c-1.8-1.4-1.8-2-0.5-3.9
	c3.1-4.3,6.1-8.7,9.2-13C286.5,179.2,288.3,177.9,290.5,177.9z"/>
<path class="st0" d="M305.8,206.9c-1.1,0-1.8,0.5-2.4,1.1c-1.3,1.3-2.6,2.6-4,4c-2,2-4.9,1.1-5.6-1.6c-0.3-0.9,0.1-1.7,0.8-2.3
	c2.6-2.1,4.9-4.6,7.7-6.4c1.7-1.1,3-2.4,4-4.1c1-1.8,2.4-3.4,3.9-4.9c0.8-0.8,1.6-0.9,2.5-0.2c3.2,2.5,3.4,2.5,0.9,5.6
	c-0.7,0.9-1.6,1.4-2.4,2.2c-1.4,1.3-1.4,2.4-0.3,3.9c0.3,0.4,0.7,0.8,1.2,1.1c1.4,1.1,2.4,1.1,3.7-0.2c1.1-1.2,2.2-2.4,3.5-3.5
	c0.9-0.8,1.6-0.8,2.4-0.1c0.4,0.3,0.7,0.6,1.1,0.9c2.1,2.1,2.1,2.7-0.4,4.5c-3,2.2-5.7,4.9-8.2,7.6c-1.9,2.1-3.8,4.3-5.9,6.4
	c-2,2-4.5,1.4-5.5-1.3c-0.4-1.1,0.1-1.9,0.9-2.7c1.5-1.4,3-2.8,4.3-4.3c1.8-1.9,1.2-4.4-1.2-5.5C306.3,207,305.9,207,305.8,206.9z"
	/>
<path class="st0" d="M327.5,248.1c-1.8-0.1-3.6-0.8-5-2.2c-2.6-2.6-4.2-6-6.2-9c-0.5-0.7-0.2-1.5,0.5-2.1c1-0.8,2.2-0.9,3-0.2
	c0.6,0.6,1.1,1.3,1.7,1.9c1.1,1.4,2,3,3.1,4.4c0.9,1.1,1.9,1.8,3.5,1.3s2.3-1.6,2-3.2c-0.3-1.6-0.8-3.2-1.3-4.7
	c-0.4-1.5-0.5-2.9-0.3-4.4c0.3-2.5,1.6-4.3,4-5.3c1.5-0.6,3-0.7,4.5,0.1c3.5,1.8,6.2,4.4,8.2,7.8c1.1,1.8,0.9,3.5-0.2,4.2
	c-1.1,0.8-2.6,0.3-4-1.4c-0.9-1.2-1.7-2.4-2.6-3.6c-0.3-0.4-0.5-0.8-0.8-1.1c-0.5-0.6-1.2-0.7-1.9-0.3c-0.8,0.4-1.2,1-0.9,1.9
	c0.3,1,0.6,1.9,0.9,2.9c0.4,1.2,0.7,2.4,0.9,3.6C337,244.1,333.3,248.2,327.5,248.1z"/>
<path class="st9" d="M161.7,164.4c3.1,0,4.6,1.1,5.3,4.1c1,3.9,2.6,7.5,4,11.2c0.3,0.7,0.5,1.3,0.7,2c0.5,1.7,0.1,2.5-1.5,3
	c-1.4,0.5-2.2,0.2-2.8-1.2c-0.5-1.3-0.9-2.6-1.4-3.9c-0.7-1.6-1.2-1.9-2.9-1.4c-3.7,1-3.9,1.4-2.7,5c0.3,0.8,0.6,1.6,0.9,2.4
	c0.5,1.4,0.2,2-1.1,2.6c-1.6,0.7-2.6,0.5-3.2-0.6c-0.2-0.4-0.3-0.9-0.5-1.3c-1.8-5.3-3.7-10.6-5.5-15.9c-0.2-0.5-0.4-1-0.4-1.6
	c-0.1-0.6,0.1-1,0.7-1.4C152.6,166.5,159.9,164.4,161.7,164.4z"/>
<path class="st9" d="M183.1,158.8c3.3,0,5,1.2,6,4.4c1.4,4.8,2,9.8,3,14.6c0.3,1.3-0.3,2-1.7,2.3c-1.6,0.4-2.7,0-3-1.3
	c-0.4-1.3-0.5-2.7-0.8-4.1c-0.4-2.2-1.1-2.6-3.2-2c-3.1,0.8-3.8,0.5-2.8,4.3c0.2,0.8,0.3,1.7,0.5,2.5c0.4,1.9,0,2.4-2.1,2.8
	c-1.7,0.4-2.3,0-2.7-2c-0.3-1.4-0.5-2.8-0.8-4.1c-0.6-3-1.2-6-1.8-8.9c-0.8-3.9,0.8-6.5,4.6-7.7
	C179.9,159.2,181.5,158.8,183.1,158.8z"/>
<path class="st9" d="M203.2,156.4c1.2,0,2.3-0.1,3.5,0c2.2,0.2,3.6,1.3,4.3,3.4c0.1,0.4,0.3,0.9,0.4,1.3c0.5,3.6,1,7.3,0.9,10.9
	c-0.1,4-1.5,5.6-5.4,6.4c-2.2,0.5-4.3,0.6-6.5,0.6c-2.7,0.1-3.9-0.9-3.9-3.5c0-5-0.6-10-0.6-14.9c0-3,0.6-3.7,3.5-4.1
	C200.7,156.4,202,156.4,203.2,156.4L203.2,156.4z"/>
<path class="st9" d="M228,173c0.3-3.4,0.9-6.8,1.8-10.1c1-4,3.4-5.6,7.6-5.2c1.7,0.2,3.4,0.6,4.9,1.4c2.2,1.1,3.2,2.8,3.3,5.2
	c0,1.5-0.4,2.9-0.6,4.4c-0.4,2.2-0.9,4.4-1.2,6.6c-0.7,4.1-3,6-7.1,5.8c-0.7,0-1.4-0.1-2.1-0.2C229.7,180.3,227.7,177.8,228,173z"/>
<path class="st0" d="M276.2,173.4c-0.7,0.1-1.2,0.4-1.6,0.9c-0.5,0.6-0.9,1.3-1.2,2c-2,4.4-4,8.8-6.1,13.2c-1.2,2.5-4,2.8-5.8,0.6
	c-0.6-0.7-0.6-1.4-0.2-2.2c0.6-1.2,1.1-2.4,1.7-3.6c1.7-3.7,3.5-7.3,5.2-11c0.2-0.4,0.4-0.9,0.5-1.3c0.3-1.3,0-2.1-1.1-2.8
	c-0.3-0.2-0.7-0.3-1.1-0.5c-2.2-0.9-2.5-1.4-1.9-2.9c0.8-1.9,1.9-2.3,3.9-1.4c3.5,1.6,6.9,3.3,10.4,4.9c0.6,0.3,1.3,0.6,1.9,0.9
	c1.7,0.8,1.8,1.1,1,2.9c-0.1,0.2-0.2,0.4-0.3,0.6c-0.7,1.3-1.3,1.5-2.7,0.8C278.1,174.1,277.3,173.5,276.2,173.4z"/>
<path class="st0" d="M312.7,231c-1,0.1-3.8-3.6-3.4-4.5c0.2-0.3,0.5-0.6,0.8-0.8c5.8-4.5,11.6-8.9,17.4-13.3
	c1.8-1.3,2.4-1.2,3.8,0.7c0.3,0.4,0.7,0.9,1,1.3c0.5,0.8,0.4,1.5-0.2,2.1c-0.3,0.3-0.6,0.5-0.9,0.8c-5.6,4.3-11.1,8.5-16.7,12.8
	C314,230.4,313.4,230.8,312.7,231z"/>
<path class="st10" d="M222.8,168c-0.1,2.4-0.3,5.5-0.5,8.7c-0.1,1.9-0.7,2.3-2.5,2.3s-2.4-0.6-2.3-2.5c0.1-2.8,0.3-5.6,0.6-8.4
	c0.3-3.1,0.3-6.2,0.4-9.3c0.1-2.2,0.8-2.7,3-2.4c1.5,0.3,2,0.8,1.9,2.3C223.2,161.5,223,164.3,222.8,168z"/>
<path class="st10" d="M172.8,500.8c-1,0-2,0.1-3,0c-2-0.1-2.9-1-3.2-3c-0.1-0.7-0.1-1.4-0.1-2.1c0.1-2.8,1-3.8,3.8-3.9
	c1.6,0,3.3-0.1,4.9-0.2c2-0.2,2.9,0.5,3.3,2.5c0.3,1.5,0.3,3.1-0.1,4.6c-0.3,1.6-1,2.1-2.6,2.1c-0.5,0-1.1-0.1-1.6-0.1
	C173.7,500.7,173.3,500.8,172.8,500.8L172.8,500.8z"/>
<path class="st11" d="M280.5,496.3c0-0.2,0-0.3,0-0.5c0.1-3.6,0.8-4.2,4.3-3.9c1.2,0.1,2.5-0.1,3.7-0.2c2.6-0.2,3.7,0.8,4,3.4
	c0,0.4,0,0.8,0,1.2c-0.3,4-1.1,4.7-5.1,4.3c-0.9-0.1-1.9,0-2.8,0.1c-2.9,0.4-4-0.6-4.2-3.5C280.5,497,280.5,496.6,280.5,496.3
	L280.5,496.3z"/>
<path class="st10" d="M339.2,253.5c0-2.5,1.7-4.3,4.2-4.3s4.6,1.9,4.5,4.3c0,2.6-1.8,4.4-4.4,4.4
	C340.9,257.9,339.2,256.2,339.2,253.5z"/>
<path class="st10" d="M143.7,179.4c2.4,0,4.3,1.9,4.3,4.3c0,2.4-2,4.3-4.6,4.2s-4.2-1.7-4.2-4.3
	C139.3,180.9,140.9,179.3,143.7,179.4z"/>
<path class="st12" d="M75.7,243.9c-1.4,0.5-1.4,0.5-0.5,1.4c-1.9,0-3.6-0.7-5.5-1c-0.3,0-0.6-0.3-0.6-0.6c0-0.4,0.3-0.6,0.6-0.5
	C71.7,243.7,73.8,243.3,75.7,243.9z"/>
<path class="st13" d="M138.4,200.9c0,0.5,0,1,0,1.4c-1.6,0.3-3-0.4-4.6-1.2C135.4,200.3,136.9,200.2,138.4,200.9z"/>
<path class="st14" d="M78.8,242.7c0.5,0,1.1-0.1,1.6-0.1s0.8,0.3,0.8,0.9c0,0.5-0.3,0.9-0.8,0.9c-1.1-0.1-2.3,0.4-3.3-0.4
	C78,244,78.9,244,78.8,242.7z"/>
<path class="st15" d="M143,203.7c0.5,0.4,0.7,0.9,0.9,1.6c-1-0.6-2.3,0.4-3.2-0.6C141.5,204.4,142.7,205.2,143,203.7L143,203.7z"/>
<path class="st15" d="M139.8,203.7c0.2,0.1,0.4,0.3,0.4,0.6C139.9,204.2,139.8,204,139.8,203.7z"/>
<path class="st15" d="M140.2,204.3c0.3,0,0.4,0.2,0.5,0.4C140.4,204.7,140.2,204.6,140.2,204.3z"/>
<path class="st16" d="M126.7,325.4c-4.7-6.2-8.9-12.7-12.3-19.8c-3.6-7.5-6.1-15.3-7.3-23.5c-1.8-12.7-0.2-24.9,5.4-36.6
	c3.3-6.7,7-13.2,11.3-19.3c1.6-0.4,2.8,0.2,4.1,1.1c1.7,1.3,3.4,2.7,5.5,3.3c3.4,1,7.5-1.8,7.7-5.3c0-0.9-0.3-1.7-0.8-2.4
	c-1.5-2.4-3.6-4.2-5.7-6c0-0.7,0.5-1.1,1-1.4c12.6-9.4,26.4-16.1,41.7-19.8c6.7-1.6,13.5-2.9,20.5-2.6c1.3,0.1,2.4-0.6,3.7-0.4
	c3.9,1.2,7.8,1,11.7,0c4,0.3,8.1,0.5,12.1,1c5.9,0.7,11.8,1.8,17.6,3.4c13.3,3.6,25.6,9.3,36.9,17.1c7.7,5.3,14.7,11.3,20.9,18.2
	c10.8,12.1,18.3,25.9,22.2,41.7c1.6,6.7,2.1,13.6,1.6,20.4c-0.7,8.9-2.9,17.5-6.6,25.7c-0.8,1.8-1.4,3.5-0.9,5.6
	c0.4,1.6-0.2,2.3-1.8,2.6c-0.8,0.2-1.7,0.1-2.6,0.1c-10.7,0.4-21.1-1.2-31.5-3.5c-9.5-2.1-18.9-4.5-27.9-8.2
	c-10.1-4.2-19.4-9.6-26.8-17.9c-1.2-1.3-2.3-2.7-3.3-4.2c-1.1-1.7-1-2.3,1-3.1c0.5-0.2,1-0.3,1.4-0.7c-2.2-1.9-4.2-2-6.4-0.3
	c-1.8,1.4-2.7,3.3-3,5.4c-0.4,3.3-0.4,6.7,0.9,9.9c0.1,0.4,0.3,0.7,0.5,1.1c0.1,0.1,0.2,0.2,0.6,0.4c0.8-4-0.6-8.1,1.5-11.9
	c1,0.6,1.4,1.6,2.1,2.3c8,10,18.3,16.8,30,21.7c11.5,4.8,23.6,7.9,35.9,9.8c4,0.6,8,1,12,1.4c0.3,0,0.6,0,0.9-0.1
	c1-0.3,1.9-0.1,2.4,0.8c0.6,1.1-0.2,1.9-0.9,2.6c-1.6,1.5-3.2,2.9-4.9,4.3c-3.9,3.4-7.6,6.9-12,9.7c-1.9,1.2-3.9,2.2-5.9,3.3
	c-0.7-0.4-0.8-1.1-1.1-1.7c-2.7-5.7-5.9-11.2-10.4-15.7c-5.5-5.6-12.2-9.1-20-10.3c-8.1-1.2-15.9-0.5-23.2,3.1
	c-11.4,5.7-18.2,15-21.1,27.4c-0.6,2.6-0.3,5.3-0.8,7.9c-0.4,1.9-0.8,2.3-2.8,2.4c-3.4,0.2-6.4-1.1-9.5-2.2c-1-0.3-1.5-1.3-1.3-2.3
	c0.6-2.1,0-4-0.2-6c-0.7-7.5-2.7-14.7-7.1-21c-5.8-8.4-13.8-13-23.9-14.1c-8.1-0.9-16-0.1-23.6,2.8
	C131.5,322.6,129.1,324.1,126.7,325.4z"/>
<path class="st17" d="M208.9,371.8c-1.6-2.4-1.9-4.9-2.2-7.2c-0.5-4.8,0.1-9.5,1.9-14c1.8-4.7,4.3-9,8-12.5
	c5.4-5.1,11.7-8.3,19.1-9.5c7.3-1.2,14.3-0.2,20.8,3.1c7.8,3.9,13.3,10,16.7,18.1c1.1,2.8,1.5,5.7,2.5,8.5c0.3,0.9,0,1.5-1,1.7
	s-1.5-0.1-1.7-1.3c-1.1-5-2.7-9.7-5.6-14c-4.6-6.9-11.1-11.1-19.1-13.3c-4.9-1.3-9.8-1.5-14.7,0c-5,1.6-9.6,4-13.5,7.7
	c-2.8,2.7-5.5,5.4-7.3,9s-2.4,7.5-3,11.4c-0.3,2.1-0.8,4.1-0.5,6.2c0.1,0.6,0,1.3,0.2,1.8C210.2,369.2,209.7,370.3,208.9,371.8z"/>
<path class="st17" d="M134.6,326.9c2.8-1.6,5.8-2.7,8.9-3.1c3.6-0.4,7.2-0.9,10.9-0.4c3.4,0.5,6.8,0.9,10,2.1c2.5,1,5.1,2.1,6.4,4.7
	c0.1,0.1,0.1,0.3,0.1,0.7c-2.5-0.5-4.5-2-6.8-2.9s-4.6-1.6-6.9-2c-2.4-0.3-4.9-1-7.4-0.6c-2.4,0.4-4.8,0.3-7.1,0.9
	c-2.4,0.6-4.8,1-7.2,1.9C134,328.6,134.2,327.8,134.6,326.9z"/>
<path class="st17" d="M175.4,334.9c2,1.5,3.3,3.2,4.4,5.1c2.5,4.4,4,9.2,4.5,14.3c0.3,3.1,0.9,6.1,0.9,9.2c0,0.5,0,0.9-0.1,1.4
	c-0.1,0.7-0.5,1.1-1.3,1.1s-1.4-0.3-1.5-1.2c-0.1-1.1-0.1-2.2,0-3.3c0.1-5.7-0.9-11.3-2.8-16.7c-0.8-2.3-1.9-4.4-2.9-6.6
	C176.2,337.3,175.6,336.3,175.4,334.9z"/>
<path class="st9" d="M134.6,326.9c-0.1,0.7,0,1.4,0.9,1.4c-1.2,0.5-2.2,1.4-3.1,2.4c-1.1,1.2-2.4,2.2-3.6,3.3
	c-2.8,2.4-4.7,5.5-5.9,9c-0.5,1.4-1.3,2-2.6,1.7c-1-0.2-1.6-1.2-1.4-2.6c0.3-2.3,1.7-4,3.1-5.6c2.5-2.8,5.1-5.6,8.4-7.6
	C131.8,328,133.2,327.5,134.6,326.9z"/>
<path class="st18" d="M213.2,192.6c-0.1,0.5-0.4,0.8-0.9,0.9c-3.5,0.7-7,0.7-10.5,0c-0.6-0.1-0.4-0.5-0.3-0.9
	C205.4,192,209.3,191.8,213.2,192.6z"/>
<path class="st15" d="M142.6,203.3c-0.1,0-0.2-0.1-0.2-0.1C142.4,203,142.5,203.1,142.6,203.3L142.6,203.3z"/>
<path class="st15" d="M142.6,203.3c0.2,0.2,0.3,0.3,0.5,0.5l0,0C142.9,203.6,142.7,203.4,142.6,203.3L142.6,203.3z"/>
<path class="st1" d="M153.8,421.4c0-4.2,0-8.4,0-12.6c0-1.9,0.5-2.3,2.3-2.5c2.3-0.2,3.8,1,4.9,2.9c1,1.7,1.2,3.7,1.4,5.6
	c0.7,6,0.2,12-1.1,17.9c-0.7,3.1-2.3,3.8-4.9,4.1c-1.6,0.2-2.3-0.5-2.5-2.1c-0.1-0.5,0-0.9,0-1.4
	C153.9,429.4,153.9,425.4,153.8,421.4C153.9,421.4,153.9,421.4,153.8,421.4z"/>
<path class="st19" d="M232.7,414.4c-0.4-2.1,0.2-4.1-0.1-6.1c-0.1-1,0.4-1.7,1.5-2c2.1-0.5,3.9,0.2,4.9,2.2c1.9,4,1.7,8-0.4,11.9
	c-0.8,1.5-2.1,2.2-3.8,2.1c-1.6-0.1-2.4-0.8-2.2-2.3C232.8,418.2,232.3,416.3,232.7,414.4z"/>
<path class="st20" d="M161.3,364.3c-1.2,1.8-2.5,3.6-4.2,5c-4.4,3.7-9.7,4.5-14.1,2.1c-5.1-2.8-6.9-8.5-6.4-13.3
	c0.5-4.6,2.9-8.5,5.4-12.3c1.3-1.9,3.4-2.6,5.6-3.2c3.9-1,7.5-0.8,10.6,2.3c1.3,1.3,2.9,2.4,4.1,3.8c1.6,1.9,2.3,4.1,1.3,6.5
	c-0.8,2-1.1,4-1,6.1C162.3,362.5,162.1,363.5,161.3,364.3z"/>
<path class="st21" d="M163.2,362.4c0.9,0.4,1,1,0.5,1.8c-0.4,0.6-0.9,0.7-1.4,0.1C161.8,363.3,162,362.6,163.2,362.4z"/>
<path class="st22" d="M163.2,362.4c-0.7,0.5-0.9,1.2-1,1.9c-0.3,0-0.6,0-0.9,0c0-1.2,0.2-2.2,1.4-2.9
	C162.8,361.8,163,362.1,163.2,362.4z"/>
<path class="st23" d="M199.3,424.5c0.1,2-0.5,2.5-2.4,2.5c-1.8,0-2.4-0.6-2.2-2.4c0.4-4,0.9-8,1.4-12c0-0.2,0-0.5,0.1-0.7
	c0.2-0.5,0-1.2,0.8-1.2s0.7,0.6,0.8,1.2c0.3,2.9,0.7,5.7,1,8.6C198.9,421.8,199.1,423.3,199.3,424.5z"/>
<path class="st24" d="M79.6,409.4c1,1.8,0.7,3.7,1,5.5c0.5,3,0.8,6,1.2,9c0.3,2.3-0.5,3.2-2.8,3c-1.5-0.2-2.1-0.8-1.9-2.3
	c0.5-3.7,1-7.4,1.5-11.1C79,412.2,78.7,410.7,79.6,409.4z"/>
<path class="st24" d="M333.8,409.2c0.8,1.5,0.6,3.2,0.9,4.8c0.5,3.5,1,7.1,1.5,10.6c0.1,0.8,0.1,1.6-0.7,2c-1.1,0.5-2.3,0.5-3.4,0
	c-0.8-0.4-0.8-1.2-0.7-2c0.6-4.8,1.1-9.5,1.7-14.3C333.1,409.9,333,409.5,333.8,409.2z"/>
<path class="st20" d="M242.5,348.8c6.4,0,10.6,4,11,10.8c0.4,5.9-1.6,10.7-6.2,14.4c-4.1,3.3-11,3.4-15.3,0.2
	c-2-1.4-3.2-3.4-3.7-5.7c-1.1-4.7-0.5-9.2,2.1-13.2C233.1,351,236.8,348.6,242.5,348.8z"/>
<path class="st1" d="M145.3,487.1c0,3.1-1.6,5.4-4.4,6.5c-2.7,1.1-5.5,1-8.2-0.1c-2.5-1-4-2.8-4.3-5.6c-0.3-2.9,0.6-5.2,3.1-6.8
	c3.1-2.1,8.3-1.9,11.2,0.5C144.4,483,145.3,484.9,145.3,487.1z"/>
<path class="st1" d="M136.7,462c1.3,0,2.7,0,4,0.6c2.1,0.9,3.2,2.6,3.2,5c-0.1,2.3-1.2,4-3.5,4.7c-2.3,0.8-4.7,0.8-7.1,0.2
	c-2.4-0.7-3.7-2.2-3.8-4.7c-0.1-2.6,1-4.3,3.4-5.2C134.1,462.1,135.4,462.1,136.7,462z"/>
<path class="st17" d="M73.3,237c-0.8,0-1.5,0-2.3,0c-0.5-2,0.3-3.3,2.2-3.5c0.7-0.1,1.4,0.2,2-0.2c0.7-0.1,1.4-0.3,1.9-0.9
	c2.4-1.3,5-2.2,7.6-2.9c2.4-0.7,4.3-2.2,6.5-3.2l0,0c0.2-0.2,0.3-0.3,0.5-0.5c1.4,0,2.8,0,4.2,0c2.4-0.8,4.8-1.3,7.2-2
	c2.2-0.6,2.9,0.1,2.4,2.4c-0.2,0.9-0.5,1.8-0.4,2.8c0,0.4,0.1,0.8,0.5,1c0.5,0.2,0.7-0.2,0.9-0.5c0.5-0.6,0.8-1.4,1.5-1.7
	c0.8,0,1.6,0,2.3,0c0.7,0.8,0.6,1.6,0,2.4c-1.4,0.4-2.2,1.9-3.8,2.1c-0.5,0.1-0.6,1-0.8,1.6c-0.2,0.7-0.5,1.4-1.3,1.4
	c-1.3,0-1.6,1-2.1,1.9c-2.1,0.8-4.3,1.3-6.6,1.9c-0.8,0-1.6,0-2.3,0c-3.3,1.1-6.5,0.8-9.8,0c-0.9,0-1.9,0-2.8,0
	C78.3,238.2,75.7,238.1,73.3,237z"/>
<path class="st25" d="M88.7,220.1c0.6,0.8-0.2,1.3-0.5,1.9c-3.1,1.8-6.6,2.8-9.4,5.1c-0.8-0.1-1.5,0.1-1.9,0.9c-0.9,0.7-2,1-2.8,1.9
	c-1.1,0.2-2,0.5-1.9,1.9c-1,0.9-2.2,0.9-3.1,0.1c-0.9-0.7-0.7-1.6-0.1-2.4c2-0.8,3.1-2.6,4.5-4c0.2-0.2,0.4-0.5,0.6-0.7
	c0.9-1.3,2.4-1.5,3.8-2c2.6-1,5-2.4,7.8-2.7C86.8,219.9,87.8,219.7,88.7,220.1z"/>
<path class="st9" d="M69.1,229.5c0,2.3,0,2.3,2.3,2.3c0.3,0,0.6,0,0.9,0c0.7,1,1.5,1.7,2.8,1.4c-0.3,0.4-0.8,0.4-1.2,0.5
	c-2.2,0.4-2.6,0.9-3,3.2c-1.1,0.5-2.3,0.2-3.4,0.1c-1.7-0.1-2.8-3-2-4.8C66.3,230.7,67.4,229.7,69.1,229.5z"/>
<path class="st26" d="M107.9,227.6c-0.2,1.2-1.1,2-1.6,3c-0.4,0.8-1.1,0.7-1.6-0.1s-0.7-1.7-0.4-2.7c0.2-0.7,0.4-1.5,0.6-2.2
	c0.2-0.5,0.4-1.1-0.1-1.5c-0.5-0.5-1.2-0.4-1.7-0.1c-0.9,0.6-1.9,0.9-3,1.2c-1.4,0.4-2.9,0.5-4.4,0.4c0.5-0.4,1-0.7,1.4-1.2
	c1.5-1.6,3.2-1.9,5.3-1.3c1.2,0.3,2.5,0.5,3.6-0.4c0.3-0.3,0.7-0.3,1.1-0.3c0.7,0.1,1.2,0.4,0.8,1.2c-0.1,0.1-0.1,0.3-0.2,0.4
	C106.5,225.4,107,226.5,107.9,227.6z"/>
<path class="st26" d="M91.1,226.2c-0.8,1.4-2.1,2.1-3.5,2.6c-3.4,1.4-6.9,2.6-10.6,3.5c3.3-3.1,7.3-4.9,11.6-6
	C89.4,226.1,90.2,225.7,91.1,226.2z"/>
<path class="st9" d="M99.6,219.7c-2,0.9-4,0.7-5.6,1.7c-0.4,0.2-0.9,0.1-1.4,0.1c-0.8,0-1.6,0-1.9-1c-0.3-0.9,0.2-1.8,1.3-2.2
	c0.6-0.2,1.3-0.6,2-0.3s1.5,0.3,2.3,0.1C97.6,217.9,98.6,218.6,99.6,219.7z"/>
<path class="st26" d="M88.7,220.1c-2.7-0.3-5,1-7.4,1.9s-4.8,1.8-7.2,2.8c0.1-1.1,0.9-1.6,1.6-2.2c2.4-1.8,5.1-2.9,8-3.2
	C85.4,219.3,87.2,219.3,88.7,220.1z"/>
<path class="st27" d="M110.3,230c0-0.8,0-1.6,0-2.4l0,0c0.5-0.5,0.5-1.3,0.9-1.9c0.6-1.1,0.9-2.4,2-3.1c0.4-0.2,0.8-0.6,1.3-0.3
	s0.5,0.8,0.3,1.2c-0.3,1-0.5,1.9-0.8,2.9C113.4,228.4,112.2,229.6,110.3,230z"/>
<path class="st26" d="M78.9,227.1c1.2-1.9,3.2-3,5.2-3.8c1.4-0.6,2.8-0.9,4.2-1.4C86,225.3,82.8,226.8,78.9,227.1z"/>
<path class="st10" d="M73.3,237c2.6,0,5.2,0.3,7.5,1.9c-1.9,1-3.8,1.2-5.8,0.2C74.2,238.5,73.4,238.1,73.3,237z"/>
<path class="st28" d="M83.6,238.9c3.3,0,6.5,0,9.8,0c-1,0.6-2,0.9-3,1.6c-0.9,0.6-2.5,0.7-3.3,0C86,239.5,84.7,239.6,83.6,238.9z"/>
<path class="st10" d="M95.8,238.8c1.9-1.6,4.2-2,6.6-1.9c-1.3,2.1-3.1,3.2-5.6,2.5C96.3,239.4,95.9,239.2,95.8,238.8z"/>
<path class="st29" d="M74.2,229.9c0.3-1.6,1.4-1.9,2.8-1.9C76.8,229.8,75.6,230.1,74.2,229.9z"/>
<path class="st30" d="M111.2,225.8c0,0.8-0.1,1.5-0.9,1.9C110.2,226.8,110.4,226.1,111.2,225.8z"/>
<path class="st26" d="M91.6,225.8c-0.2,0.2-0.3,0.3-0.5,0.5C91.2,226.1,91.4,225.9,91.6,225.8z"/>
<path class="st31" d="M87.4,343.6c0.5,0.5,0.3,1.2,0.5,1.8c0.1,0.3,0.3,0.5,0.6,0.6c0.4,0.1,0.8-0.1,0.9-0.5s0.2-0.9,0.2-1.4
	c-0.1-1.5,0.6-2.5,1.9-3.2c2.3,0.2,4.5-0.1,6.7-0.5c4.3-0.7,7.5,1.5,8.9,6.1c0.6,2,1.3,3.9,3,5.1c0.1,0.6-0.2,1.1-0.4,1.6
	c-0.7,2.2-0.8,2.2-3.2,2.1c-0.2,2,0.8,3.6,1.7,5.2c0.8,1.5,1.8,2.9,2.5,4.5c1.3,2.5,0.8,3.4-2,3.5c-1.4,0-2.8,0-4.2,0
	c-2.3,0-4.7,0-7,0c0,0.3-0.1,0.6,0,0.6c2.5,2.6,1.4,4.1-0.6,5.9c-4.7,4.3-12.9,4-17-1c-1.9-2.3-2.5-4.9-1.8-7.9
	c0.2-0.8,0.9-1.6,0.4-2.4c-0.4-0.8-1.4-0.5-2.1-0.9c-3.9-2.1-6.5-6.1-6-10.5c0.2-1.5,0.2-3.1,1.3-4.4c1.8-0.3,3.4-1.2,5.1-2.1
	c2.4-1.4,5.2-1.7,7.9-0.9C86.2,345.3,87.1,345.2,87.4,343.6z"/>
<path class="st32" d="M110.2,351.7c-0.4,0.2-0.9,0.4-1.2-0.1c-0.8-1.1-1.7-2.2-2-3.6c-0.2-0.9-0.5-1.8-0.8-2.6
	c-1.5-3.5-4.6-5-8.3-4.2c-2.1,0.4-4.2,1.2-6.2-0.2l0,0c0.2-0.2,0.3-0.3,0.5-0.5c0.9-0.7,1.9-1.4,2.9-1.9c7.1-3.9,14.6,1.8,15.5,7.6
	C110.7,348,110.6,349.8,110.2,351.7z"/>
<path class="st33" d="M87.4,343.6c0,0.6-0.1,1.2-0.1,2.1c-1.1-0.1-2.3,0-3.4-0.3c-3-0.8-5.7,0-8,1.8c-1.3,1-2.5,1.4-4,0.7
	c1.1-3.4,3.4-5.5,7-6.1c1.9,0.5,3.8,0.9,5.6,0C85.9,341.8,87.1,342,87.4,343.6z"/>
<path class="st34" d="M84.5,341.8c-1.3,1.6-3.3,1.8-5.6,0C80.8,340.7,82.6,340.3,84.5,341.8z"/>
<path class="st31" d="M92,340.4c-0.2,0.2-0.3,0.3-0.5,0.5C91.6,340.6,91.8,340.5,92,340.4z"/>
<path class="st19" d="M292.6,191.3c-1.5-0.1-2.7-0.7-3.7-1.8c-1.1-1.2-0.9-3,0.5-4.6c1.2-1.5,3-1.9,4.6-1c1.1,0.6,1.8,1.5,2.2,2.6
	c0.1,0.3,0.2,0.6,0.1,0.9c-0.6,1.1-1.2,2.2-1.9,3.2C294.1,191.1,293.4,191.3,292.6,191.3z"/>
<path class="st35" d="M160.4,168.3c1.6,0,3.3,2.2,3.2,4.2c-0.1,1.6-2,3.1-4.1,3c-2.2,0-2.9-1.1-3.2-4.8
	C156,168.7,157.5,168.7,160.4,168.3z"/>
<path class="st23" d="M185.2,166.8c0,1.9-0.3,2.2-1.6,2.4c-0.9,0.1-1.8,0.3-2.8,0.4c-1.3,0.1-1.9-0.4-2.2-1.6
	c-0.1-0.5-0.2-0.9-0.2-1.4c-0.4-2.9,1.5-4.6,4.4-4c1,0.2,1.7,0.9,1.9,1.8C184.9,165.3,185,166.3,185.2,166.8z"/>
<path class="st19" d="M200.7,167.6c0-1.7,0-3.4,0-5.1c0-2,0.7-2.7,2.7-2.7c2.7,0,3.7,0.8,3.8,3.5c0.2,2.8,0.6,5.6,0.6,8.4
	c-0.1,2.9-3,4.7-5.6,3.4c-0.9-0.4-1.1-1.3-1.1-2.2c0-1.8,0-3.6,0-5.4C200.9,167.6,200.8,167.6,200.7,167.6z"/>
<path class="st36" d="M237.6,161.5c2.5,0.1,3.5,1.4,3.1,3.8c-0.5,3.1-1.1,6.3-1.7,9.4c-0.4,2.1-1.5,2.8-3.7,2.5
	c-2.1-0.4-3-1.5-2.6-3.6c0.5-3.2,1-6.5,1.6-9.7C234.7,162,235.5,161.4,237.6,161.5z"/>
<path class="st37" d="M271.3,251.5c-0.5,0-1.1,0-1.6,0c-3.7,0-5.4,2.5-4.1,5.9c1.3,3.5,3.1,6.8,5,10c1,1.6,2.1,3.1,3,4.7
	c1.2,2.2,3,2.8,5.3,2.3c3.4-0.8,6.7-1,10.2-0.9c2.1,0,4.2,0,6.3,0.7c-1.1,1.7-2.8,2.8-4.3,3.8c-3.9,2.8-6.1,6.8-7.9,11.1
	c-0.7,1.6,0.1,3,1.2,4.3s1,1.6-0.3,2.5c-2.7,1.7-2.6,1.9-2.2,5.1c0.4,2.7,1,5.3,1.9,7.9c2.3,6.7,8.7,11,15.7,10.4
	c2.9-0.2,5.4-1.5,7.6-3.3c4.4-3.8,7-8.6,8.2-14.3c0.6-2.7,0.4-5.4,0.4-8.1c0-2.3,0-2.3,1.6-2.4c2.3-0.1,3.4,0.6,3.5,2.4
	c0,0.4,0,0.8,0,1.2c-1.4,8.3-3.5,16.4-6.6,24.2c-0.2,0.4-0.4,0.8-0.6,1.3c-1.9,3.9-3.9,5-8.1,4.1c-2.1-0.5-4.3-0.5-6.5-0.7
	c-6.5-0.8-13-1.7-19.5-3c-6.3-1.3-12.6-2.9-18.6-5.1c-8.7-3.1-17.1-7-24.5-12.7c-2.3-1.8-4.3-4.1-6.3-6.2c-1-1.1-0.9-2.4-0.3-3.7
	c1.3-3.3,1-4-1.9-6c-6.4-4.3-13.2-0.1-14.7,5.2c-1.8,6.2-1,12.3,1.1,18.3c0.5,1.4,2.3,2.4,3.8,2.3c1.7-0.1,3.5-1.4,4-3.1
	c0.3-0.9,0.3-1.8,0.9-2.7c4,3.6,7.4,7.7,11.6,11c-0.1,0.2-0.1,0.3-0.2,0.5c-2,0-4,0.1-5.9,0c-6.5-0.3-12.4,1.5-18.2,4.3
	c-2.8,1.4-5.5,2.9-7.7,5.2c-1.5,1.6-2.5,3.5-3.4,5.8c1.8-0.4,2.9-1.4,4.2-2.3c2.6-1.8,5.1-3.9,8.3-4.7c0.7-0.2,1.4-0.3,2.1-0.3l0,0
	c-1.8,2.6-4,4.7-6.4,6.7c-3.2,2.7-5.2,6.4-6.7,10.3c-1,2.7-1.7,5.5-1.9,8.4c0,0.7-0.1,1.5-0.9,1.7c-0.9,0.3-1.7-0.1-2.3-0.8
	c-0.5-0.6-0.6-1.4-0.5-2.2c0-1.9,0.1-3.9,0-5.8c-0.3-8.8-3.2-16.5-8.6-23.4c-3.5-4.4-7.8-7.5-12.9-9.7c-1.3-0.6-2.5-1.2-3.9-0.8
	c-0.3,1,0.6,1.3,0.9,1.9c0.1,0.3,0.2,0.6,0,0.9s-0.5,0.3-0.8,0.1c-3.1-1.6-6.4-2.2-9.8-2.8c-0.7-0.1-1.4-0.2-2.1-0.2
	c-4.7,0-9.4,0.1-14.2,0.8c-5.5,0.8-10.8-0.7-15.6-3.5c-2.6-1.5-5.1-3.1-7.3-5c-3.2-2.9-5.5-6.5-7.1-10.5c-1.7-4.4-2.5-8.9-2.9-13.6
	c-0.2-1.9-0.5-3.8-0.4-5.8c0.1-4.1,0.6-8.2,1.5-12.2c1.4-6.3,3.2-12.5,6.4-18.2c1.7-3.1,3.5-6,5.4-9c1.4-2.1,3.2-2.4,5.4-1
	c0.9,0.5,1.7,1.1,2.6,1.5c3.1,1.4,6,1.1,8.7-1c2.4-1.8,4.4-3.8,4.8-7.1c0.1-1.2-0.1-2.3-0.6-3.4c-0.4-0.9-0.9-1.8-1.4-2.7
	c-1.5-2.5-1.4-4,0.9-5.6c2.5-1.7,5-3.4,7.7-4.8c8.4-4.6,17.4-8,26.7-10.1c4.2-0.9,8.3-1.7,12.6-2.2c4.2-0.5,8.3-0.8,12.5-1
	c2-0.1,4.1-0.7,6-0.3c3.5,0.7,7.1,0.4,10.7,0.7c7.1,0.6,14.1,2,21,3.9c5.6,1.5,11.1,3.5,16.5,5.8c4.8,2.1,9.5,4.4,14,7
	c4.8,2.8,9.4,5.8,13.6,9.3c3.5,2.9,6.9,5.8,10,9.1c5.6,6,10.6,12.5,14.7,19.8c2.9,5.1,5.3,10.4,7.3,15.9c0.3,1,0.6,1.9,0.1,3.3
	c-3.1-3.9-6.3-7.5-10.3-10.4c-4.1-2.9-8.5-5-13.4-6.5c-4.7-1.4-9.5-2.3-14.4-2.3C276.6,251.1,274,251.1,271.3,251.5z"/>
<path class="st4" d="M312.1,295.3c0.1,5.9-1.2,11-4.9,15.3c-2.3,2.7-5.1,4.6-8.7,5c-3.5,0.4-6.2-1.3-8.5-3.7
	c-2.5-2.6-3.6-5.8-4.2-9.2c-0.5-2.7,0.5-3.9,3.1-4.5c1.1-0.2,2.1-0.4,3.1-0.9c1.4-0.6,1.5-1.3,0.4-2.4c-1.1-1-2.3-1.9-3.3-2.9
	c-2-1.9-2.1-3.4-0.6-5.6c1.6-2.4,3.5-4.6,6-6.2c4.2-2.6,8.5-2.2,12.2,1.2C310.8,285.3,312.3,290.1,312.1,295.3z"/>
<path class="st4" d="M317.9,285.4c-1-0.5-1.6-1.3-2.3-2c-2.9-2.6-5.5-5.5-8.7-7.8c-5-3.7-10.6-5.8-16.9-5.9c-3,0-5.9-0.2-8.8,0.5
	c-0.8,0.2-1.6,0.1-2.3,0.1c-1.4,0.1-2.3-0.6-3-1.8c-1.8-3.3-3.7-6.6-5.6-10c-0.2-0.4-0.5-0.8-0.6-1.3c-0.5-1.4-0.1-2.1,1.5-2.1
	c8.1-0.2,16.2,0.1,24,2.8c8.6,3.1,15.3,8.6,20,16.4C316.9,277.7,317.8,280.8,317.9,285.4z"/>
<path class="st38" d="M213.7,326.4c1.3-1.8,3-2.5,5.2-2.3C218,325.7,216.7,326.3,213.7,326.4L213.7,326.4z"/>
<path class="st39" d="M271.3,251.5c0.2-0.1,0.4-0.4,0.6-0.4c2.5,0.1,5-0.6,7.4,0.4C276.6,251.5,274,251.5,271.3,251.5z"/>
<path class="st40" d="M224,201.4c3.5,0.2,7,0.8,10.4,1.5c10.2,2,20.1,5,29.3,9.8c8.7,4.5,16.4,10.4,23,17.7c1.1,1.3,2.3,2.5,3.1,4.1
	c0.7,1.5,0.5,2.3-0.9,3.4c-1.1,0.9-2.2,0.9-3.3-0.2c-1.3-1.3-2.4-2.7-3.6-4c-8.2-8.9-18.1-15.2-29.3-19.5
	c-8.7-3.3-17.7-5.4-26.9-6.6c-1.5-0.2-3.1-0.6-4.5-1.2c-1.4-0.6-2.2-1.6-2-2.6c0.1-1.1,1-1.8,2.5-2.1
	C222.6,201.4,223.4,201.5,224,201.4z"/>
</svg>
